<svg width="430" height="563" viewBox="0 0 430 563" fill="none" xmlns="http://www.w3.org/2000/svg">
<path d="M3.62337 -900.759C259.817 -1351.28 210.032 -998.763 380.828 -1468.78C411.656 -1560.12 492.536 -1809.4 569.43 -2075.81C665.548 -2408.83 740.226 -2692.84 960.989 -2379.33C1012.3 -2136.12 968.075 -2036.64 939.549 -2017.31C912.294 -1853.97 886.238 -1468.58 1000.05 -1233.77C1142.32 -940.26 1145.96 -1243.27 1316.75 -1028.26C1487.55 -813.255 1288.41 -557.743 1210.1 -606.745C1147.45 -645.947 1017.92 -414.403 960.989 -293.731C907.57 -71.7209 760.177 403.701 597.957 529.306C395.182 686.314 380.828 245.293 163.699 215.792C-53.4297 186.291 -366.495 558.308 -341.602 68.7855C-274.011 -352.234 -252.57 -450.238 3.62337 -900.759Z" fill="#FAE8FF"/>
</svg>
