<svg width="1728" height="559" viewBox="0 0 1728 559" fill="none" xmlns="http://www.w3.org/2000/svg">
<path d="M121.846 -904.832C826.846 -1355.33 689.846 -1002.83 1159.85 -1472.83C1244.68 -1564.17 1467.25 -1813.43 1678.85 -2079.83C1943.35 -2412.83 2148.85 -2696.83 2756.35 -2383.33C2897.55 -2140.13 2775.85 -2040.67 2697.35 -2021.33C2622.35 -1858 2550.65 -1472.63 2863.85 -1237.83C3255.35 -944.332 3265.35 -1247.33 3735.35 -1032.33C4205.35 -817.332 3657.35 -561.832 3441.85 -610.832C3269.45 -650.032 2913.01 -418.499 2756.35 -297.832C2609.35 -75.8322 2203.75 399.568 1757.35 525.168C1199.35 682.168 1159.85 241.168 562.346 211.668C-35.154 182.168 -896.654 554.168 -828.154 64.6678C-642.154 -356.332 -583.154 -454.332 121.846 -904.832Z" fill="#FAE8FF"/>
</svg>
