<svg width="227" height="50" viewBox="0 0 227 50" fill="none" xmlns="http://www.w3.org/2000/svg">
<rect width="98" height="50" fill="#1890FF"/>
<path d="M15.3721 11.3555V16.8105H19.166V21.1582H15.3721V32.2324C15.3721 33.0527 15.5293 33.6406 15.8438 33.9961C16.1582 34.3516 16.7598 34.5293 17.6484 34.5293C18.3047 34.5293 18.8857 34.4814 19.3916 34.3857V38.877C18.2295 39.2324 17.0332 39.4102 15.8027 39.4102C11.6465 39.4102 9.52734 37.3115 9.44531 33.1143V21.1582H6.20508V16.8105H9.44531V11.3555H15.3721ZM35.3262 39C35.0527 38.4668 34.8545 37.8037 34.7314 37.0107C33.2959 38.6104 31.4297 39.4102 29.1328 39.4102C26.959 39.4102 25.1543 38.7812 23.7188 37.5234C22.2969 36.2656 21.5859 34.6797 21.5859 32.7656C21.5859 30.4141 22.4541 28.6094 24.1904 27.3516C25.9404 26.0938 28.4629 25.458 31.7578 25.4443H34.4854V24.1729C34.4854 23.1475 34.2188 22.3271 33.6855 21.7119C33.166 21.0967 32.3389 20.7891 31.2041 20.7891C30.2061 20.7891 29.4199 21.0283 28.8457 21.5068C28.2852 21.9854 28.0049 22.6416 28.0049 23.4756H22.0781C22.0781 22.1904 22.4746 21.001 23.2676 19.9072C24.0605 18.8135 25.1816 17.959 26.6309 17.3438C28.0801 16.7148 29.707 16.4004 31.5117 16.4004C34.2461 16.4004 36.4131 17.0908 38.0127 18.4717C39.626 19.8389 40.4326 21.7666 40.4326 24.2549V33.873C40.4463 35.9785 40.7402 37.5713 41.3145 38.6514V39H35.3262ZM30.4248 34.8779C31.2998 34.8779 32.1064 34.6865 32.8447 34.3037C33.583 33.9072 34.1299 33.3809 34.4854 32.7246V28.9102H32.2705C29.3037 28.9102 27.7246 29.9355 27.5332 31.9863L27.5127 32.335C27.5127 33.0732 27.7725 33.6816 28.292 34.1602C28.8115 34.6387 29.5225 34.8779 30.4248 34.8779ZM50.7686 19.2305C52.3408 17.3438 54.3164 16.4004 56.6953 16.4004C61.5078 16.4004 63.9482 19.1963 64.0166 24.7881V39H58.0898V24.9521C58.0898 23.6807 57.8164 22.7441 57.2695 22.1426C56.7227 21.5273 55.8135 21.2197 54.542 21.2197C52.8057 21.2197 51.5479 21.8896 50.7686 23.2295V39H44.8418V7.5H50.7686V19.2305ZM74.7422 39H68.7949V16.8105H74.7422V39ZM68.4463 11.0684C68.4463 10.1797 68.7402 9.44824 69.3281 8.87402C69.9297 8.2998 70.7432 8.0127 71.7686 8.0127C72.7803 8.0127 73.5869 8.2998 74.1885 8.87402C74.79 9.44824 75.0908 10.1797 75.0908 11.0684C75.0908 11.9707 74.7832 12.709 74.168 13.2832C73.5664 13.8574 72.7666 14.1445 71.7686 14.1445C70.7705 14.1445 69.9639 13.8574 69.3486 13.2832C68.7471 12.709 68.4463 11.9707 68.4463 11.0684ZM92.1123 22.3682C91.3057 22.2588 90.5947 22.2041 89.9795 22.2041C87.7373 22.2041 86.2676 22.9629 85.5703 24.4805V39H79.6436V16.8105H85.2422L85.4062 19.4561C86.5957 17.4189 88.2432 16.4004 90.3486 16.4004C91.0049 16.4004 91.6201 16.4893 92.1943 16.667L92.1123 22.3682Z" fill="white"/>
<path d="M113.135 40C112.861 39.4668 112.663 38.8037 112.54 38.0107C111.104 39.6104 109.238 40.4102 106.941 40.4102C104.768 40.4102 102.963 39.7812 101.527 38.5234C100.105 37.2656 99.3945 35.6797 99.3945 33.7656C99.3945 31.4141 100.263 29.6094 101.999 28.3516C103.749 27.0938 106.271 26.458 109.566 26.4443H112.294V25.1729C112.294 24.1475 112.027 23.3271 111.494 22.7119C110.975 22.0967 110.147 21.7891 109.013 21.7891C108.015 21.7891 107.229 22.0283 106.654 22.5068C106.094 22.9854 105.813 23.6416 105.813 24.4756H99.8867C99.8867 23.1904 100.283 22.001 101.076 20.9072C101.869 19.8135 102.99 18.959 104.439 18.3438C105.889 17.7148 107.516 17.4004 109.32 17.4004C112.055 17.4004 114.222 18.0908 115.821 19.4717C117.435 20.8389 118.241 22.7666 118.241 25.2549V34.873C118.255 36.9785 118.549 38.5713 119.123 39.6514V40H113.135ZM108.233 35.8779C109.108 35.8779 109.915 35.6865 110.653 35.3037C111.392 34.9072 111.938 34.3809 112.294 33.7246V29.9102H110.079C107.112 29.9102 105.533 30.9355 105.342 32.9863L105.321 33.335C105.321 34.0732 105.581 34.6816 106.101 35.1602C106.62 35.6387 107.331 35.8779 108.233 35.8779ZM128.577 20.2305C130.149 18.3438 132.125 17.4004 134.504 17.4004C139.316 17.4004 141.757 20.1963 141.825 25.7881V40H135.898V25.9521C135.898 24.6807 135.625 23.7441 135.078 23.1426C134.531 22.5273 133.622 22.2197 132.351 22.2197C130.614 22.2197 129.356 22.8896 128.577 24.2295V40H122.65V8.5H128.577V20.2305ZM151.854 17.8105L152.038 20.292C153.61 18.3643 155.736 17.4004 158.416 17.4004C161.273 17.4004 163.235 18.5283 164.302 20.7842C165.86 18.5283 168.082 17.4004 170.967 17.4004C173.373 17.4004 175.164 18.1045 176.34 19.5127C177.516 20.9072 178.104 23.0127 178.104 25.8291V40H172.156V25.8496C172.156 24.5918 171.91 23.6758 171.418 23.1016C170.926 22.5137 170.058 22.2197 168.813 22.2197C167.036 22.2197 165.806 23.0674 165.122 24.7627L165.143 40H159.216V25.8701C159.216 24.585 158.963 23.6553 158.457 23.0811C157.951 22.5068 157.09 22.2197 155.873 22.2197C154.191 22.2197 152.975 22.917 152.223 24.3115V40H146.296V17.8105H151.854ZM192.89 40.4102C189.636 40.4102 186.983 39.4121 184.933 37.416C182.896 35.4199 181.877 32.7607 181.877 29.4385V28.8643C181.877 26.6357 182.308 24.6465 183.169 22.8965C184.03 21.1328 185.247 19.7793 186.819 18.8359C188.405 17.8789 190.21 17.4004 192.233 17.4004C195.269 17.4004 197.654 18.3574 199.391 20.2715C201.141 22.1855 202.016 24.8994 202.016 28.4131V30.833H187.886C188.077 32.2822 188.651 33.4443 189.608 34.3193C190.579 35.1943 191.803 35.6318 193.279 35.6318C195.562 35.6318 197.347 34.8047 198.632 33.1504L201.544 36.4111C200.655 37.6689 199.452 38.6533 197.935 39.3643C196.417 40.0615 194.735 40.4102 192.89 40.4102ZM192.213 22.1992C191.037 22.1992 190.08 22.5957 189.342 23.3887C188.617 24.1816 188.152 25.3164 187.947 26.793H196.191V26.3213C196.164 25.0088 195.809 23.9971 195.125 23.2861C194.441 22.5615 193.471 22.1992 192.213 22.1992ZM204.477 28.7412C204.477 25.2822 205.249 22.5273 206.794 20.4766C208.353 18.4258 210.479 17.4004 213.172 17.4004C215.332 17.4004 217.116 18.207 218.524 19.8203V8.5H224.472V40H219.119L218.832 37.6416C217.355 39.4873 215.455 40.4102 213.131 40.4102C210.52 40.4102 208.421 39.3848 206.835 37.334C205.263 35.2695 204.477 32.4053 204.477 28.7412ZM210.403 29.1719C210.403 31.25 210.766 32.8428 211.49 33.9502C212.215 35.0576 213.268 35.6113 214.648 35.6113C216.48 35.6113 217.772 34.8389 218.524 33.2939V24.5371C217.786 22.9922 216.508 22.2197 214.689 22.2197C211.832 22.2197 210.403 24.5371 210.403 29.1719Z" fill="#1890FF"/>
</svg>
