<svg width="50" height="50" viewBox="0 0 50 50" fill="none" xmlns="http://www.w3.org/2000/svg">
<rect width="25" height="50" fill="#1890FF"/>
<path d="M19.3721 12.3555V17.8105H23.166V22.1582H19.3721V33.2324C19.3721 34.0527 19.5293 34.6406 19.8438 34.9961C20.1582 35.3516 20.7598 35.5293 21.6484 35.5293C22.3047 35.5293 22.8857 35.4814 23.3916 35.3857V39.877C22.2295 40.2324 21.0332 40.4102 19.8027 40.4102C15.6465 40.4102 13.5273 38.3115 13.4453 34.1143V22.1582H10.2051V17.8105H13.4453V12.3555H19.3721Z" fill="white"/>
<path d="M40.1348 40C39.8613 39.4668 39.6631 38.8037 39.54 38.0107C38.1045 39.6104 36.2383 40.4102 33.9414 40.4102C31.7676 40.4102 29.9629 39.7812 28.5273 38.5234C27.1055 37.2656 26.3945 35.6797 26.3945 33.7656C26.3945 31.4141 27.2627 29.6094 28.999 28.3516C30.749 27.0938 33.2715 26.458 36.5664 26.4443H39.2939V25.1729C39.2939 24.1475 39.0273 23.3271 38.4941 22.7119C37.9746 22.0967 37.1475 21.7891 36.0127 21.7891C35.0146 21.7891 34.2285 22.0283 33.6543 22.5068C33.0938 22.9854 32.8135 23.6416 32.8135 24.4756H26.8867C26.8867 23.1904 27.2832 22.001 28.0762 20.9072C28.8691 19.8135 29.9902 18.959 31.4395 18.3438C32.8887 17.7148 34.5156 17.4004 36.3203 17.4004C39.0547 17.4004 41.2217 18.0908 42.8213 19.4717C44.4346 20.8389 45.2412 22.7666 45.2412 25.2549V34.873C45.2549 36.9785 45.5488 38.5713 46.123 39.6514V40H40.1348ZM35.2334 35.8779C36.1084 35.8779 36.915 35.6865 37.6533 35.3037C38.3916 34.9072 38.9385 34.3809 39.2939 33.7246V29.9102H37.0791C34.1123 29.9102 32.5332 30.9355 32.3418 32.9863L32.3213 33.335C32.3213 34.0732 32.5811 34.6816 33.1006 35.1602C33.6201 35.6387 34.3311 35.8779 35.2334 35.8779Z" fill="#1890FF"/>
</svg>
