<svg width="500" height="500" viewBox="0 0 500 500" fill="none" xmlns="http://www.w3.org/2000/svg">
<g clip-path="url(#clip0_104_50)">
<path d="M165 213.5V348.5C165 369.5 173.167 380 189.5 380C207.5 380 224.167 371.833 239.5 355.5C244.167 355.5 248 357.5 251 361.5C254.333 365.167 256 370.167 256 376.5C256 390.167 247.667 403 231 415C214.333 426.667 193.667 432.5 169 432.5C144.667 432.5 124.833 426.333 109.5 414C94.1667 401.667 86.5 382.833 86.5 357.5V213.5C74.5 213.167 65.5 210.333 59.5 205C53.5 199.333 50.5 192.333 50.5 184C50.5 175.667 54 169 61 164C69 165 77.5 165.5 86.5 165.5V150.5C86.5 133.167 80.8333 121.5 69.5 115.5C82.1667 101.167 97.1667 94 114.5 94C132.167 94 145 98.8333 153 108.5C161 118.167 165 133.167 165 153.5V165.5H240.5C242.833 168.167 244 171.5 244 175.5C244 185.833 238.333 194.833 227 202.5C216 209.833 196.667 213.5 169 213.5H165Z" fill="#5151CD"/>
<path d="M165 213.5V348.5C165 369.5 173.167 380 189.5 380C207.5 380 224.167 371.833 239.5 355.5C244.167 355.5 248 357.5 251 361.5C254.333 365.167 256 370.167 256 376.5C256 390.167 247.667 403 231 415C214.333 426.667 193.667 432.5 169 432.5C144.667 432.5 124.833 426.333 109.5 414C94.1667 401.667 86.5 382.833 86.5 357.5V213.5C74.5 213.167 65.5 210.333 59.5 205C53.5 199.333 50.5 192.333 50.5 184C50.5 175.667 54 169 61 164C69 165 77.5 165.5 86.5 165.5V150.5C86.5 133.167 80.8333 121.5 69.5 115.5C82.1667 101.167 97.1667 94 114.5 94C132.167 94 145 98.8333 153 108.5C161 118.167 165 133.167 165 153.5V165.5H240.5C242.833 168.167 244 171.5 244 175.5C244 185.833 238.333 194.833 227 202.5C216 209.833 196.667 213.5 169 213.5H165Z" fill="url(#paint0_linear_104_50)" fill-opacity="0.2"/>
<path d="M285 359C285 383 298 395 324 395C350.333 395 372 383.5 389 360.5V301C353.667 303 327.5 309.333 310.5 320C293.5 330.333 285 343.333 285 359ZM430.5 245V378C430.5 395.667 438.667 405.667 455 408C448.667 421 438.167 427.5 423.5 427.5C402.5 427.5 391 414 389 387C369.667 414 343.667 427.5 311 427.5C290.333 427.5 273.333 421.833 260 410.5C246.667 399.167 240 383.5 240 363.5C240 338.833 252.333 319 277 304C302 288.667 339.333 280.333 389 279V249C389 228.333 385.333 213.167 378 203.5C370.667 193.5 359 188.5 343 188.5C327.333 188.5 315.5 191.833 307.5 198.5C299.5 204.833 295.5 212.167 295.5 220.5C295.5 228.5 297.833 235 302.5 240C295.5 245.333 287.667 248 279 248C270.667 248 263.833 245.667 258.5 241C253.167 236.333 250.5 229.667 250.5 221C250.5 205.333 259.5 192 277.5 181C295.5 170 317.667 164.5 344 164.5C370.333 164.5 391.333 171.667 407 186C422.667 200 430.5 219.667 430.5 245Z" fill="url(#paint1_linear_104_50)"/>
</g>
<defs>
<linearGradient id="paint0_linear_104_50" x1="160.562" y1="121.299" x2="45" y2="121.299" gradientUnits="userSpaceOnUse">
<stop offset="0.196" stop-color="#9B9EF0"/>
<stop offset="0.616" stop-color="#5151CD"/>
</linearGradient>
<linearGradient id="paint1_linear_104_50" x1="156" y1="218" x2="544.894" y2="267.183" gradientUnits="userSpaceOnUse">
<stop offset="0.377382" stop-color="#5151CD"/>
<stop offset="0.553121" stop-color="#7D81F4"/>
<stop offset="0.66052" stop-color="#797CD3"/>
<stop offset="0.865013" stop-color="#9B9EF0"/>
</linearGradient>
<clipPath id="clip0_104_50">
<rect width="500" height="500" fill="white"/>
</clipPath>
</defs>
</svg>
