<svg width="93" height="93" viewBox="0 0 93 93" fill="none" xmlns="http://www.w3.org/2000/svg">
<path d="M37.36 42.672V59.952C37.36 62.64 38.4053 63.984 40.496 63.984C42.8 63.984 44.9333 62.9387 46.896 60.848C47.4933 60.848 47.984 61.104 48.368 61.616C48.7947 62.0853 49.008 62.7253 49.008 63.536C49.008 65.2853 47.9413 66.928 45.808 68.464C43.6747 69.9573 41.0293 70.704 37.872 70.704C34.7573 70.704 32.2187 69.9147 30.256 68.336C28.2933 66.7573 27.312 64.3467 27.312 61.104V42.672C25.776 42.6293 24.624 42.2667 23.856 41.584C23.088 40.8587 22.704 39.9627 22.704 38.896C22.704 37.8293 23.152 36.976 24.048 36.336C25.072 36.464 26.16 36.528 27.312 36.528V34.608C27.312 32.3893 26.5867 30.896 25.136 30.128C26.7573 28.2933 28.6773 27.376 30.896 27.376C33.1573 27.376 34.8 27.9947 35.824 29.232C36.848 30.4693 37.36 32.3893 37.36 34.992V36.528H47.024C47.3227 36.8693 47.472 37.296 47.472 37.808C47.472 39.1307 46.7467 40.2827 45.296 41.264C43.888 42.2027 41.4133 42.672 37.872 42.672H37.36Z" fill="#763691"/>
<path d="M37.36 42.672V59.952C37.36 62.64 38.4053 63.984 40.496 63.984C42.8 63.984 44.9333 62.9387 46.896 60.848C47.4933 60.848 47.984 61.104 48.368 61.616C48.7947 62.0853 49.008 62.7253 49.008 63.536C49.008 65.2853 47.9413 66.928 45.808 68.464C43.6747 69.9573 41.0293 70.704 37.872 70.704C34.7573 70.704 32.2187 69.9147 30.256 68.336C28.2933 66.7573 27.312 64.3467 27.312 61.104V42.672C25.776 42.6293 24.624 42.2667 23.856 41.584C23.088 40.8587 22.704 39.9627 22.704 38.896C22.704 37.8293 23.152 36.976 24.048 36.336C25.072 36.464 26.16 36.528 27.312 36.528V34.608C27.312 32.3893 26.5867 30.896 25.136 30.128C26.7573 28.2933 28.6773 27.376 30.896 27.376C33.1573 27.376 34.8 27.9947 35.824 29.232C36.848 30.4693 37.36 32.3893 37.36 34.992V36.528H47.024C47.3227 36.8693 47.472 37.296 47.472 37.808C47.472 39.1307 46.7467 40.2827 45.296 41.264C43.888 42.2027 41.4133 42.672 37.872 42.672H37.36Z" fill="url(#paint0_linear_104_50)" fill-opacity="0.2"/>
<path d="M50.216 61.808C50.216 64.88 51.88 66.416 55.208 66.416C58.5787 66.416 61.352 64.944 63.528 62V54.384C59.0053 54.64 55.656 55.4507 53.48 56.816C51.304 58.1387 50.216 59.8027 50.216 61.808ZM68.84 47.216V64.24C68.84 66.5013 69.8853 67.7813 71.976 68.08C71.1653 69.744 69.8213 70.576 67.944 70.576C65.256 70.576 63.784 68.848 63.528 65.392C61.0533 68.848 57.7253 70.576 53.544 70.576C50.8987 70.576 48.7227 69.8507 47.016 68.4C45.3093 66.9493 44.456 64.944 44.456 62.384C44.456 59.2267 46.0347 56.688 49.192 54.768C52.392 52.8053 57.1707 51.7387 63.528 51.568V47.728C63.528 45.0827 63.0587 43.1413 62.12 41.904C61.1813 40.624 59.688 39.984 57.64 39.984C55.6347 39.984 54.12 40.4107 53.096 41.264C52.072 42.0747 51.56 43.0133 51.56 44.08C51.56 45.104 51.8587 45.936 52.456 46.576C51.56 47.2587 50.5573 47.6 49.448 47.6C48.3813 47.6 47.5067 47.3013 46.824 46.704C46.1413 46.1067 45.8 45.2533 45.8 44.144C45.8 42.1387 46.952 40.432 49.256 39.024C51.56 37.616 54.3973 36.912 57.768 36.912C61.1387 36.912 63.8267 37.8293 65.832 39.664C67.8373 41.456 68.84 43.9733 68.84 47.216Z" fill="url(#paint1_linear_104_50)"/>
<defs>
<linearGradient id="paint0_linear_104_50" x1="47.0833" y1="45.8961" x2="22" y2="45.8961" gradientUnits="userSpaceOnUse">
<stop offset="0.291667" stop-color="#F0B5F7"/>
<stop offset="0.531235" stop-color="#2E0D47"/>
</linearGradient>
<linearGradient id="paint1_linear_104_50" x1="41" y1="52.539" x2="70.8885" y2="51.6598" gradientUnits="userSpaceOnUse">
<stop stop-color="#CA7BDB"/>
<stop offset="1" stop-color="#F0B5F7"/>
</linearGradient>
</defs>
</svg>
