<svg width="130" height="47" viewBox="0 0 130 47" fill="none" xmlns="http://www.w3.org/2000/svg">
<path d="M28.736 11.4H21.76V31H17.456V11.4H10.48V7.864H28.736V11.4ZM45.7375 22.264L42.9215 14.568C42.7828 14.2267 42.6388 13.8213 42.4895 13.352C42.3402 12.8827 42.1908 12.376 42.0415 11.832C41.9028 12.376 41.7588 12.888 41.6095 13.368C41.4602 13.8373 41.3162 14.248 41.1775 14.6L38.3775 22.264H45.7375ZM53.3375 31H50.0095C49.6362 31 49.3322 30.9093 49.0975 30.728C48.8628 30.536 48.6868 30.3013 48.5695 30.024L46.8415 25.304H37.2575L35.5295 30.024C35.4442 30.2693 35.2788 30.4933 35.0335 30.696C34.7882 30.8987 34.4842 31 34.1215 31H30.7615L39.8655 7.864H44.2495L53.3375 31ZM79.2363 7.864V31H74.9163V20.888H64.0523V31H59.7323V7.864H64.0523V17.816H74.9163V7.864H79.2363ZM92.7085 31H88.3885V7.864H92.7085V31ZM108.881 18.872C109.691 18.872 110.395 18.7707 110.993 18.568C111.601 18.3653 112.097 18.088 112.481 17.736C112.875 17.3733 113.169 16.9467 113.361 16.456C113.553 15.9653 113.649 15.4267 113.649 14.84C113.649 13.6667 113.259 12.7653 112.481 12.136C111.713 11.5067 110.534 11.192 108.945 11.192H106.193V18.872H108.881ZM119.953 31H116.065C115.329 31 114.795 30.712 114.465 30.136L109.601 22.728C109.419 22.4507 109.217 22.2533 108.993 22.136C108.779 22.0187 108.459 21.96 108.033 21.96H106.193V31H101.889V7.864H108.945C110.513 7.864 111.857 8.02933 112.977 8.36C114.107 8.68 115.03 9.13333 115.745 9.72C116.47 10.3067 117.003 11.0107 117.345 11.832C117.686 12.6427 117.857 13.5387 117.857 14.52C117.857 15.2987 117.739 16.0347 117.505 16.728C117.281 17.4213 116.95 18.0507 116.513 18.616C116.086 19.1813 115.553 19.6773 114.913 20.104C114.283 20.5307 113.563 20.8667 112.753 21.112C113.03 21.272 113.286 21.464 113.521 21.688C113.755 21.9013 113.969 22.1573 114.161 22.456L119.953 31Z" fill="#701A75"/>
<path d="M28.736 11.4H21.76V31H17.456V11.4H10.48V7.864H28.736V11.4ZM45.7375 22.264L42.9215 14.568C42.7828 14.2267 42.6388 13.8213 42.4895 13.352C42.3402 12.8827 42.1908 12.376 42.0415 11.832C41.9028 12.376 41.7588 12.888 41.6095 13.368C41.4602 13.8373 41.3162 14.248 41.1775 14.6L38.3775 22.264H45.7375ZM53.3375 31H50.0095C49.6362 31 49.3322 30.9093 49.0975 30.728C48.8628 30.536 48.6868 30.3013 48.5695 30.024L46.8415 25.304H37.2575L35.5295 30.024C35.4442 30.2693 35.2788 30.4933 35.0335 30.696C34.7882 30.8987 34.4842 31 34.1215 31H30.7615L39.8655 7.864H44.2495L53.3375 31ZM79.2363 7.864V31H74.9163V20.888H64.0523V31H59.7323V7.864H64.0523V17.816H74.9163V7.864H79.2363ZM92.7085 31H88.3885V7.864H92.7085V31ZM108.881 18.872C109.691 18.872 110.395 18.7707 110.993 18.568C111.601 18.3653 112.097 18.088 112.481 17.736C112.875 17.3733 113.169 16.9467 113.361 16.456C113.553 15.9653 113.649 15.4267 113.649 14.84C113.649 13.6667 113.259 12.7653 112.481 12.136C111.713 11.5067 110.534 11.192 108.945 11.192H106.193V18.872H108.881ZM119.953 31H116.065C115.329 31 114.795 30.712 114.465 30.136L109.601 22.728C109.419 22.4507 109.217 22.2533 108.993 22.136C108.779 22.0187 108.459 21.96 108.033 21.96H106.193V31H101.889V7.864H108.945C110.513 7.864 111.857 8.02933 112.977 8.36C114.107 8.68 115.03 9.13333 115.745 9.72C116.47 10.3067 117.003 11.0107 117.345 11.832C117.686 12.6427 117.857 13.5387 117.857 14.52C117.857 15.2987 117.739 16.0347 117.505 16.728C117.281 17.4213 116.95 18.0507 116.513 18.616C116.086 19.1813 115.553 19.6773 114.913 20.104C114.283 20.5307 113.563 20.8667 112.753 21.112C113.03 21.272 113.286 21.464 113.521 21.688C113.755 21.9013 113.969 22.1573 114.161 22.456L119.953 31Z" fill="url(#paint0_linear_1_9)" fill-opacity="0.8"/>
<path d="M51.9137 40.372C51.4857 40.392 51.1257 40.43 50.8337 40.486C50.5417 40.538 50.3077 40.606 50.1317 40.69C49.9557 40.774 49.8297 40.872 49.7537 40.984C49.6777 41.096 49.6397 41.218 49.6397 41.35C49.6397 41.61 49.7157 41.796 49.8677 41.908C50.0237 42.02 50.2257 42.076 50.4737 42.076C50.7777 42.076 51.0397 42.022 51.2597 41.914C51.4837 41.802 51.7017 41.634 51.9137 41.41V40.372ZM48.5177 37.702C49.2257 37.054 50.0777 36.73 51.0737 36.73C51.4337 36.73 51.7557 36.79 52.0397 36.91C52.3237 37.026 52.5637 37.19 52.7597 37.402C52.9557 37.61 53.1037 37.86 53.2037 38.152C53.3077 38.444 53.3597 38.764 53.3597 39.112V43H52.6877C52.5477 43 52.4397 42.98 52.3637 42.94C52.2877 42.896 52.2277 42.81 52.1837 42.682L52.0517 42.238C51.8957 42.378 51.7437 42.502 51.5957 42.61C51.4477 42.714 51.2937 42.802 51.1337 42.874C50.9737 42.946 50.8017 43 50.6177 43.036C50.4377 43.076 50.2377 43.096 50.0177 43.096C49.7577 43.096 49.5177 43.062 49.2977 42.994C49.0777 42.922 48.8877 42.816 48.7277 42.676C48.5677 42.536 48.4437 42.362 48.3557 42.154C48.2677 41.946 48.2237 41.704 48.2237 41.428C48.2237 41.272 48.2497 41.118 48.3017 40.966C48.3537 40.81 48.4377 40.662 48.5537 40.522C48.6737 40.382 48.8277 40.25 49.0157 40.126C49.2037 40.002 49.4337 39.894 49.7057 39.802C49.9817 39.71 50.3017 39.636 50.6657 39.58C51.0297 39.52 51.4457 39.484 51.9137 39.472V39.112C51.9137 38.7 51.8257 38.396 51.6497 38.2C51.4737 38 51.2197 37.9 50.8877 37.9C50.6477 37.9 50.4477 37.928 50.2877 37.984C50.1317 38.04 49.9937 38.104 49.8737 38.176C49.7537 38.244 49.6437 38.306 49.5437 38.362C49.4477 38.418 49.3397 38.446 49.2197 38.446C49.1157 38.446 49.0277 38.42 48.9557 38.368C48.8837 38.312 48.8257 38.248 48.7817 38.176L48.5177 37.702ZM56.2374 37.504C56.4774 37.28 56.7414 37.098 57.0294 36.958C57.3174 36.818 57.6554 36.748 58.0434 36.748C58.3794 36.748 58.6774 36.806 58.9374 36.922C59.1974 37.034 59.4134 37.194 59.5854 37.402C59.7614 37.606 59.8934 37.852 59.9814 38.14C60.0734 38.424 60.1194 38.738 60.1194 39.082V43H58.6374V39.082C58.6374 38.706 58.5514 38.416 58.3794 38.212C58.2074 38.004 57.9454 37.9 57.5934 37.9C57.3374 37.9 57.0974 37.958 56.8734 38.074C56.6494 38.19 56.4374 38.348 56.2374 38.548V43H54.7554V34.084H56.2374V37.504ZM61.5289 43V36.844H62.4349C62.6269 36.844 62.7529 36.934 62.8129 37.114L62.9089 37.57C63.0169 37.45 63.1289 37.34 63.2449 37.24C63.3649 37.14 63.4909 37.054 63.6229 36.982C63.7589 36.91 63.9029 36.854 64.0549 36.814C64.2109 36.77 64.3809 36.748 64.5649 36.748C64.9529 36.748 65.2709 36.854 65.5189 37.066C65.7709 37.274 65.9589 37.552 66.0829 37.9C66.1789 37.696 66.2989 37.522 66.4429 37.378C66.5869 37.23 66.7449 37.11 66.9169 37.018C67.0889 36.926 67.2709 36.858 67.4629 36.814C67.6589 36.77 67.8549 36.748 68.0509 36.748C68.3909 36.748 68.6929 36.8 68.9569 36.904C69.2209 37.008 69.4429 37.16 69.6229 37.36C69.8029 37.56 69.9389 37.804 70.0309 38.092C70.1269 38.38 70.1749 38.71 70.1749 39.082V43H68.6929V39.082C68.6929 38.69 68.6069 38.396 68.4349 38.2C68.2629 38 68.0109 37.9 67.6789 37.9C67.5269 37.9 67.3849 37.926 67.2529 37.978C67.1249 38.03 67.0109 38.106 66.9109 38.206C66.8149 38.302 66.7389 38.424 66.6829 38.572C66.6269 38.72 66.5989 38.89 66.5989 39.082V43H65.1109V39.082C65.1109 38.67 65.0269 38.37 64.8589 38.182C64.6949 37.994 64.4529 37.9 64.1329 37.9C63.9169 37.9 63.7149 37.954 63.5269 38.062C63.3429 38.166 63.1709 38.31 63.0109 38.494V43H61.5289ZM75.5496 39.214C75.5496 39.022 75.5216 38.842 75.4656 38.674C75.4136 38.502 75.3336 38.352 75.2256 38.224C75.1176 38.096 74.9796 37.996 74.8116 37.924C74.6476 37.848 74.4556 37.81 74.2356 37.81C73.8076 37.81 73.4696 37.932 73.2216 38.176C72.9776 38.42 72.8216 38.766 72.7536 39.214H75.5496ZM72.7236 40.108C72.7476 40.424 72.8036 40.698 72.8916 40.93C72.9796 41.158 73.0956 41.348 73.2396 41.5C73.3836 41.648 73.5536 41.76 73.7496 41.836C73.9496 41.908 74.1696 41.944 74.4096 41.944C74.6496 41.944 74.8556 41.916 75.0276 41.86C75.2036 41.804 75.3556 41.742 75.4836 41.674C75.6156 41.606 75.7296 41.544 75.8256 41.488C75.9256 41.432 76.0216 41.404 76.1136 41.404C76.2376 41.404 76.3296 41.45 76.3896 41.542L76.8156 42.082C76.6516 42.274 76.4676 42.436 76.2636 42.568C76.0596 42.696 75.8456 42.8 75.6216 42.88C75.4016 42.956 75.1756 43.01 74.9436 43.042C74.7156 43.074 74.4936 43.09 74.2776 43.09C73.8496 43.09 73.4516 43.02 73.0836 42.88C72.7156 42.736 72.3956 42.526 72.1236 42.25C71.8516 41.97 71.6376 41.626 71.4816 41.218C71.3256 40.806 71.2476 40.33 71.2476 39.79C71.2476 39.37 71.3156 38.976 71.4516 38.608C71.5876 38.236 71.7816 37.914 72.0336 37.642C72.2896 37.366 72.5996 37.148 72.9636 36.988C73.3316 36.828 73.7456 36.748 74.2056 36.748C74.5936 36.748 74.9516 36.81 75.2796 36.934C75.6076 37.058 75.8896 37.24 76.1256 37.48C76.3616 37.716 76.5456 38.008 76.6776 38.356C76.8136 38.7 76.8816 39.094 76.8816 39.538C76.8816 39.762 76.8576 39.914 76.8096 39.994C76.7616 40.07 76.6696 40.108 76.5336 40.108H72.7236ZM81.8577 38.416C81.6897 38.212 81.5057 38.068 81.3057 37.984C81.1097 37.9 80.8977 37.858 80.6697 37.858C80.4457 37.858 80.2437 37.9 80.0637 37.984C79.8837 38.068 79.7297 38.196 79.6017 38.368C79.4737 38.536 79.3757 38.752 79.3077 39.016C79.2397 39.276 79.2057 39.584 79.2057 39.94C79.2057 40.3 79.2337 40.606 79.2897 40.858C79.3497 41.106 79.4337 41.31 79.5417 41.47C79.6497 41.626 79.7817 41.74 79.9377 41.812C80.0937 41.88 80.2677 41.914 80.4597 41.914C80.7677 41.914 81.0297 41.85 81.2457 41.722C81.4617 41.594 81.6657 41.412 81.8577 41.176V38.416ZM83.3397 34.084V43H82.4337C82.2377 43 82.1137 42.91 82.0617 42.73L81.9357 42.136C81.6877 42.42 81.4017 42.65 81.0777 42.826C80.7577 43.002 80.3837 43.09 79.9557 43.09C79.6197 43.09 79.3117 43.02 79.0317 42.88C78.7517 42.74 78.5097 42.538 78.3057 42.274C78.1057 42.006 77.9497 41.676 77.8377 41.284C77.7297 40.892 77.6757 40.444 77.6757 39.94C77.6757 39.484 77.7377 39.06 77.8617 38.668C77.9857 38.276 78.1637 37.936 78.3957 37.648C78.6277 37.36 78.9057 37.136 79.2297 36.976C79.5537 36.812 79.9177 36.73 80.3217 36.73C80.6657 36.73 80.9597 36.784 81.2037 36.892C81.4477 37 81.6657 37.146 81.8577 37.33V34.084H83.3397Z" fill="#701A75"/>
<path d="M51.9137 40.372C51.4857 40.392 51.1257 40.43 50.8337 40.486C50.5417 40.538 50.3077 40.606 50.1317 40.69C49.9557 40.774 49.8297 40.872 49.7537 40.984C49.6777 41.096 49.6397 41.218 49.6397 41.35C49.6397 41.61 49.7157 41.796 49.8677 41.908C50.0237 42.02 50.2257 42.076 50.4737 42.076C50.7777 42.076 51.0397 42.022 51.2597 41.914C51.4837 41.802 51.7017 41.634 51.9137 41.41V40.372ZM48.5177 37.702C49.2257 37.054 50.0777 36.73 51.0737 36.73C51.4337 36.73 51.7557 36.79 52.0397 36.91C52.3237 37.026 52.5637 37.19 52.7597 37.402C52.9557 37.61 53.1037 37.86 53.2037 38.152C53.3077 38.444 53.3597 38.764 53.3597 39.112V43H52.6877C52.5477 43 52.4397 42.98 52.3637 42.94C52.2877 42.896 52.2277 42.81 52.1837 42.682L52.0517 42.238C51.8957 42.378 51.7437 42.502 51.5957 42.61C51.4477 42.714 51.2937 42.802 51.1337 42.874C50.9737 42.946 50.8017 43 50.6177 43.036C50.4377 43.076 50.2377 43.096 50.0177 43.096C49.7577 43.096 49.5177 43.062 49.2977 42.994C49.0777 42.922 48.8877 42.816 48.7277 42.676C48.5677 42.536 48.4437 42.362 48.3557 42.154C48.2677 41.946 48.2237 41.704 48.2237 41.428C48.2237 41.272 48.2497 41.118 48.3017 40.966C48.3537 40.81 48.4377 40.662 48.5537 40.522C48.6737 40.382 48.8277 40.25 49.0157 40.126C49.2037 40.002 49.4337 39.894 49.7057 39.802C49.9817 39.71 50.3017 39.636 50.6657 39.58C51.0297 39.52 51.4457 39.484 51.9137 39.472V39.112C51.9137 38.7 51.8257 38.396 51.6497 38.2C51.4737 38 51.2197 37.9 50.8877 37.9C50.6477 37.9 50.4477 37.928 50.2877 37.984C50.1317 38.04 49.9937 38.104 49.8737 38.176C49.7537 38.244 49.6437 38.306 49.5437 38.362C49.4477 38.418 49.3397 38.446 49.2197 38.446C49.1157 38.446 49.0277 38.42 48.9557 38.368C48.8837 38.312 48.8257 38.248 48.7817 38.176L48.5177 37.702ZM56.2374 37.504C56.4774 37.28 56.7414 37.098 57.0294 36.958C57.3174 36.818 57.6554 36.748 58.0434 36.748C58.3794 36.748 58.6774 36.806 58.9374 36.922C59.1974 37.034 59.4134 37.194 59.5854 37.402C59.7614 37.606 59.8934 37.852 59.9814 38.14C60.0734 38.424 60.1194 38.738 60.1194 39.082V43H58.6374V39.082C58.6374 38.706 58.5514 38.416 58.3794 38.212C58.2074 38.004 57.9454 37.9 57.5934 37.9C57.3374 37.9 57.0974 37.958 56.8734 38.074C56.6494 38.19 56.4374 38.348 56.2374 38.548V43H54.7554V34.084H56.2374V37.504ZM61.5289 43V36.844H62.4349C62.6269 36.844 62.7529 36.934 62.8129 37.114L62.9089 37.57C63.0169 37.45 63.1289 37.34 63.2449 37.24C63.3649 37.14 63.4909 37.054 63.6229 36.982C63.7589 36.91 63.9029 36.854 64.0549 36.814C64.2109 36.77 64.3809 36.748 64.5649 36.748C64.9529 36.748 65.2709 36.854 65.5189 37.066C65.7709 37.274 65.9589 37.552 66.0829 37.9C66.1789 37.696 66.2989 37.522 66.4429 37.378C66.5869 37.23 66.7449 37.11 66.9169 37.018C67.0889 36.926 67.2709 36.858 67.4629 36.814C67.6589 36.77 67.8549 36.748 68.0509 36.748C68.3909 36.748 68.6929 36.8 68.9569 36.904C69.2209 37.008 69.4429 37.16 69.6229 37.36C69.8029 37.56 69.9389 37.804 70.0309 38.092C70.1269 38.38 70.1749 38.71 70.1749 39.082V43H68.6929V39.082C68.6929 38.69 68.6069 38.396 68.4349 38.2C68.2629 38 68.0109 37.9 67.6789 37.9C67.5269 37.9 67.3849 37.926 67.2529 37.978C67.1249 38.03 67.0109 38.106 66.9109 38.206C66.8149 38.302 66.7389 38.424 66.6829 38.572C66.6269 38.72 66.5989 38.89 66.5989 39.082V43H65.1109V39.082C65.1109 38.67 65.0269 38.37 64.8589 38.182C64.6949 37.994 64.4529 37.9 64.1329 37.9C63.9169 37.9 63.7149 37.954 63.5269 38.062C63.3429 38.166 63.1709 38.31 63.0109 38.494V43H61.5289ZM75.5496 39.214C75.5496 39.022 75.5216 38.842 75.4656 38.674C75.4136 38.502 75.3336 38.352 75.2256 38.224C75.1176 38.096 74.9796 37.996 74.8116 37.924C74.6476 37.848 74.4556 37.81 74.2356 37.81C73.8076 37.81 73.4696 37.932 73.2216 38.176C72.9776 38.42 72.8216 38.766 72.7536 39.214H75.5496ZM72.7236 40.108C72.7476 40.424 72.8036 40.698 72.8916 40.93C72.9796 41.158 73.0956 41.348 73.2396 41.5C73.3836 41.648 73.5536 41.76 73.7496 41.836C73.9496 41.908 74.1696 41.944 74.4096 41.944C74.6496 41.944 74.8556 41.916 75.0276 41.86C75.2036 41.804 75.3556 41.742 75.4836 41.674C75.6156 41.606 75.7296 41.544 75.8256 41.488C75.9256 41.432 76.0216 41.404 76.1136 41.404C76.2376 41.404 76.3296 41.45 76.3896 41.542L76.8156 42.082C76.6516 42.274 76.4676 42.436 76.2636 42.568C76.0596 42.696 75.8456 42.8 75.6216 42.88C75.4016 42.956 75.1756 43.01 74.9436 43.042C74.7156 43.074 74.4936 43.09 74.2776 43.09C73.8496 43.09 73.4516 43.02 73.0836 42.88C72.7156 42.736 72.3956 42.526 72.1236 42.25C71.8516 41.97 71.6376 41.626 71.4816 41.218C71.3256 40.806 71.2476 40.33 71.2476 39.79C71.2476 39.37 71.3156 38.976 71.4516 38.608C71.5876 38.236 71.7816 37.914 72.0336 37.642C72.2896 37.366 72.5996 37.148 72.9636 36.988C73.3316 36.828 73.7456 36.748 74.2056 36.748C74.5936 36.748 74.9516 36.81 75.2796 36.934C75.6076 37.058 75.8896 37.24 76.1256 37.48C76.3616 37.716 76.5456 38.008 76.6776 38.356C76.8136 38.7 76.8816 39.094 76.8816 39.538C76.8816 39.762 76.8576 39.914 76.8096 39.994C76.7616 40.07 76.6696 40.108 76.5336 40.108H72.7236ZM81.8577 38.416C81.6897 38.212 81.5057 38.068 81.3057 37.984C81.1097 37.9 80.8977 37.858 80.6697 37.858C80.4457 37.858 80.2437 37.9 80.0637 37.984C79.8837 38.068 79.7297 38.196 79.6017 38.368C79.4737 38.536 79.3757 38.752 79.3077 39.016C79.2397 39.276 79.2057 39.584 79.2057 39.94C79.2057 40.3 79.2337 40.606 79.2897 40.858C79.3497 41.106 79.4337 41.31 79.5417 41.47C79.6497 41.626 79.7817 41.74 79.9377 41.812C80.0937 41.88 80.2677 41.914 80.4597 41.914C80.7677 41.914 81.0297 41.85 81.2457 41.722C81.4617 41.594 81.6657 41.412 81.8577 41.176V38.416ZM83.3397 34.084V43H82.4337C82.2377 43 82.1137 42.91 82.0617 42.73L81.9357 42.136C81.6877 42.42 81.4017 42.65 81.0777 42.826C80.7577 43.002 80.3837 43.09 79.9557 43.09C79.6197 43.09 79.3117 43.02 79.0317 42.88C78.7517 42.74 78.5097 42.538 78.3057 42.274C78.1057 42.006 77.9497 41.676 77.8377 41.284C77.7297 40.892 77.6757 40.444 77.6757 39.94C77.6757 39.484 77.7377 39.06 77.8617 38.668C77.9857 38.276 78.1637 37.936 78.3957 37.648C78.6277 37.36 78.9057 37.136 79.2297 36.976C79.5537 36.812 79.9177 36.73 80.3217 36.73C80.6657 36.73 80.9597 36.784 81.2037 36.892C81.4477 37 81.6657 37.146 81.8577 37.33V34.084H83.3397Z" fill="url(#paint1_linear_1_9)" fill-opacity="0.8"/>
<line x1="84" y1="39.5" x2="121" y2="39.5" stroke="#701A75"/>
<line x1="84" y1="39.5" x2="121" y2="39.5" stroke="url(#paint2_linear_1_9)" stroke-opacity="0.8"/>
<path d="M10 40H47.0034" stroke="#701A75"/>
<path d="M10 40H47.0034" stroke="url(#paint3_linear_1_9)" stroke-opacity="0.8"/>
<defs>
<linearGradient id="paint0_linear_1_9" x1="68.5" y1="33" x2="68.5" y2="8" gradientUnits="userSpaceOnUse">
<stop stop-color="#581C87"/>
<stop offset="0.335985" stop-color="#581C87" stop-opacity="0.958333"/>
<stop offset="1" stop-color="#581C87" stop-opacity="0"/>
</linearGradient>
<linearGradient id="paint1_linear_1_9" x1="82.5" y1="36.5" x2="50" y2="43" gradientUnits="userSpaceOnUse">
<stop stop-color="#581C87"/>
<stop offset="0.897851" stop-color="#581C87" stop-opacity="0"/>
</linearGradient>
<linearGradient id="paint2_linear_1_9" x1="90.5" y1="40" x2="118" y2="39.5" gradientUnits="userSpaceOnUse">
<stop stop-color="#581C87"/>
<stop offset="1" stop-color="#581C87" stop-opacity="0"/>
</linearGradient>
<linearGradient id="paint3_linear_1_9" x1="43" y1="40" x2="15.5" y2="40" gradientUnits="userSpaceOnUse">
<stop stop-color="#581C87"/>
<stop offset="1" stop-color="#581C87" stop-opacity="0"/>
</linearGradient>
</defs>
</svg>
